<mxfile host="app.diagrams.net" modified="2023-09-17T16:24:07.992Z" agent="Mozilla/5.0 (Macintosh; Intel Mac OS X 10_15_7) AppleWebKit/537.36 (KHTML, like Gecko) Chrome/117.0.0.0 Safari/537.36" version="21.7.4" etag="WQaaQTYhV7DEtXdHp8uc" type="github">
  <diagram name="第 1 页" id="wIsoTSX7kr5_bi2yvoIx">
    <mxGraphModel>
      <root>
        <mxCell id="0" />
        <mxCell id="1" parent="0" />
      </root>
    </mxGraphModel>
  </diagram>
</mxfile>
